<?xml version="1.0" encoding="UTF-8"?>
<svg xmlns="http://www.w3.org/2000/svg" xmlns:xlink="http://www.w3.org/1999/xlink" version="1.1" viewBox="0 0 198 263">
  <defs>
    <style>
      .cls-1 {
        fill: url(#linear-gradient);
      }

      .cls-2 {
        fill: #57d1e5;
      }

      .cls-3 {
        fill: #3b2d55;
      }

      .cls-4 {
        fill: #4d9bb6;
      }

      .cls-5 {
        fill: #93e1ef;
      }
    </style>
    <linearGradient id="linear-gradient" x1="110.9" y1="162.4" x2="37.9" y2="162.4" gradientTransform="translate(0 264) scale(1 -1)" gradientUnits="userSpaceOnUse">
      <stop offset="0" stop-color="#cecad5"/>
      <stop offset=".7" stop-color="#fff"/>
      <stop offset="1" stop-color="#fff"/>
    </linearGradient>
  </defs>
  <!-- Generator: Adobe Illustrator 28.6.0, SVG Export Plug-In . SVG Version: 1.2.0 Build 709)  -->
  <g>
    <g id="Layer_1">
      <path class="cls-3" d="M162.1,235.6c-1.1,4.9-5.5,8.4-10.5,8.4-.6,0-1.2,0-1.8-.1h0l-1.1-.2.8-.8c1.6-1.6,2.7-3.5,3.4-5.6.3-1.1.5-2.1.6-3.2,0-.4.1-.9.2-1.4l2.2-13.3c1-6,1.9-12,2.7-17.7,0-.4-.3-.7-.7-.8-.3,0-.6.2-.7.5-1.2,5.7-2.4,11.6-3.6,17.6l-2.5,13.2c0,.4-.2.8-.2,1.3-.2,1.1-.4,2.1-.6,3-.7,2.3-2.2,4.3-4.2,5.6-.2.1-.4.3-.7.4-1.1.7-2.4,1.1-3.7,1.3-1.3.2-2.6.2-3.9,0-1.4-.3-2.8-.9-4-1.8l-.5-.4.3-.5c.9-1.4,1.6-2.9,2-4.6.2-1.1.4-2.2.5-3.4,0-.4,0-.8.1-1.3l1.3-13.3c.6-6.1,1.1-12.1,1.6-17.8,0-.4-.3-.7-.6-.8-.2,0-.3,0-.5.1-.1.1-.2.3-.3.5-.8,5.7-1.6,11.7-2.4,17.7l-1.7,13.3v1.2c-.3,1-.4,2-.6,3-.2,1-.6,1.9-1.2,2.8-.8,1.3-1.8,2.4-3,3.3h-.1c0,0-.2.2-.2.2-2.2,1.4-4.9,2-7.5,1.6-2.6-.4-5-1.7-6.7-3.8-.4-.5-.8-1-1.1-1.6v-.2c-.1,0,0-.3,0-.3.6-1.7.9-3.5.8-5.4v-6.6c.2-7.9.3-16.5.2-26.4,0-.4-.3-.7-.7-.7-.4,0-.7.3-.8.7-.6,9.9-1,18.5-1.3,26.3l-.3,6.7c0,1-.1,1.9-.3,2.9-.2,1-.5,1.9-1,2.7h0c-1.9,3.6-5.5,5.7-9.4,5.7h-.2c-3.8,0-7.3-2.1-9.2-5.5v-.2c-.6-.9-.9-1.8-1.1-2.7-.2-1-.3-2-.3-3l-.3-6.6c-.3-8.3-.8-16.9-1.3-26.3,0-.4-.4-.7-.8-.6-.3,0-.6.3-.6.6,0,9.4,0,18,.2,26.4l.2,6.6c0,1.2,0,2.4.3,3.5.1.6.3,1.2.5,1.8v.3c0,0,0,.2,0,.2-.3.6-.7,1.1-1.1,1.6-3.5,4.3-9.6,5.2-14.2,2.1h-.2c0-.1,0-.2,0-.2-1.2-.9-2.2-2-3-3.3-.5-.9-.9-1.8-1.2-2.8-.2-1-.4-2-.5-3,0-.4,0-.8-.2-1.2l-1.7-13.3c-.8-6.1-1.6-12-2.4-17.7,0-.4-.4-.6-.8-.6-.2,0-.4.1-.5.2-.1.1-.2.3-.2.5.5,5.7,1,11.7,1.6,17.8l1.2,13.4c0,.4,0,.9.1,1.3,0,1.1.2,2.2.5,3.3.4,1.6,1.1,3.2,2,4.5l.3.5-.5.4c-1.2.9-2.6,1.5-4,1.8-2.6.5-5.3.1-7.6-1.2-.2-.1-.5-.3-.7-.4-2-1.4-3.5-3.3-4.2-5.6-.3-1-.5-1.9-.6-2.9,0-.4-.2-.9-.2-1.3l-2.5-13.3c-1.2-6-2.4-11.9-3.6-17.6,0-.4-.4-.6-.8-.6-.4,0-.6.4-.6.8.8,5.8,1.8,11.7,2.7,17.8l2.2,13.3c0,.4.2.9.2,1.4.2,1.1.4,2.2.7,3.2.6,2.1,1.8,4.1,3.4,5.6l.8.9-1.2.2c-5.6.9-11-2.7-12.3-8.2,0-.4-4-18.8-8.5-41.4h0c3.9,26.6,6.5,41.6,6.6,41.9h0c0,.3.2.7.3,1.1,0,0,0,.2,0,.3h0c0,.3.2.5.3.8s.1.3.2.4.2.4.3.5h0c0,.2.1.4.2.5v.2c.1,0,.1,0,.1,0,.3.4.6.9.9,1.3h0c.2.3.3.5.6.7h0c0,.1.6.7.6.7h0c2.4,2.2,5.4,3.4,8.6,3.4.7,0,1.4,0,2.1-.2l1.2-.2,3.8-.6c.8.3,1.7.6,2.5.7.7.1,1.3.2,2,.2.9,0,1.8,0,2.6-.3,1.7-.4,3.4-1.1,4.8-2.1l.5-.4.9-.6c.4.4.8.7,1.3,1h0c0,0,.3.3.3.3,2.1,1.4,4.5,2.1,7,2.1.6,0,1.2,0,1.8-.1,3.1-.5,5.9-2.1,7.9-4.5.5-.6.9-1.2,1.2-1.8,2.2,4.1,6.5,6.6,11.2,6.6h.4c4.5,0,8.6-2.5,10.9-6.4.4.6.8,1.2,1.2,1.8,2,2.4,4.8,4,7.9,4.5.6,0,1.2.1,1.8.1,2.5,0,4.9-.7,7-2.1l.3-.2h0c.4-.4.9-.7,1.3-1.1l.9.6.5.4c1.4,1,3.1,1.8,4.8,2.1.9.2,1.8.2,2.7.2,1.8,0,3.6-.4,5.2-1.1l3.1.7,1.1.2h.2c.7.1,1.4.2,2.1.2,6,0,11.1-4.2,12.4-10,0-.3,2.6-15.9,6.8-43.2-4.6,23.3-8.7,42.3-8.8,42.7Z"/>
      <path class="cls-2" d="M100.4,35.9c-49.3,0-83.8,30.7-83.8,74.6s7.4,52.2,13.7,83.7c4.5,22.7,8.4,41,8.5,41.4,1.3,5.6,6.7,9.2,12.3,8.2l1.2-.2-.8-.9c-1.6-1.6-2.7-3.5-3.4-5.6-.3-1.1-.5-2.1-.7-3.2,0-.4-.1-.9-.2-1.4l-2.2-13.3c-1-6-1.9-12-2.7-17.8,0-.4.2-.7.6-.8.4,0,.7.2.8.6,1.2,5.7,2.3,11.6,3.6,17.6l2.5,13.2c0,.4.2.9.2,1.3.2,1,.4,2,.6,2.9.7,2.3,2.2,4.3,4.2,5.6.2.1.4.3.7.4,2.3,1.3,5,1.8,7.6,1.2,1.5-.3,2.8-.9,4-1.8l.5-.4-.3-.5c-.9-1.4-1.6-2.9-2-4.5-.2-1.1-.4-2.2-.5-3.3,0-.4,0-.9-.1-1.3l-1.4-13.3c-.6-6.1-1.1-12.1-1.6-17.8,0-.2,0-.4.2-.5.1-.1.3-.2.5-.2.4,0,.7.2.8.6.8,5.7,1.6,11.6,2.4,17.7l1.7,13.3c0,.4.1.8.2,1.2,0,1,.3,2,.5,3,.3,1,.7,1.9,1.2,2.8.8,1.3,1.8,2.4,3,3.3h0c0,0,.2.2.2.2,4.6,3,10.7,2.1,14.2-2.1.4-.5.8-1,1.1-1.6v-.2c.1,0,0-.3,0-.3-.2-.6-.4-1.2-.5-1.8-.2-1.2-.3-2.3-.2-3.5l-.2-6.6c-.2-8.4-.2-17-.2-26.4,0-.4.4-.7.8-.6.3,0,.6.3.6.6.6,9.4,1,18,1.3,26.3l.3,6.6c0,1,.1,2,.3,3,.2.9.5,1.8,1,2.7v.2c2,3.3,5.5,5.4,9.3,5.5h.2c3.9,0,7.5-2.1,9.4-5.5h0c.5-1,.8-1.9,1-2.9.2-1,.3-1.9.3-2.9l.3-6.7c.3-7.9.7-16.5,1.3-26.3,0-.4.4-.7.8-.7.4,0,.7.3.7.7,0,9.9,0,18.5-.2,26.4v6.6c0,1.8-.3,3.6-.9,5.4v.3c0,0,0,.2,0,.2.3.6.7,1.1,1.1,1.6,1.7,2.1,4.1,3.4,6.7,3.8,2.6.4,5.3-.2,7.5-1.6h.2c0-.1.1-.2.1-.2,1.2-.9,2.2-2,3-3.3.6-.9,1-1.8,1.2-2.8.2-1,.4-2,.5-3v-1.2c.1,0,1.8-13.3,1.8-13.3.8-6.1,1.6-12,2.4-17.7,0-.2.1-.3.3-.5.3-.2.7-.2,1,.1.1.1.2.3.1.5-.5,5.7-1,11.7-1.6,17.8l-1.3,13.3c0,.4,0,.9-.1,1.3,0,1.1-.2,2.2-.5,3.4-.4,1.6-1.1,3.2-2,4.6l-.3.5.5.4c1.2.9,2.6,1.5,4,1.8,1.3.3,2.6.3,3.9,0,1.3-.2,2.6-.6,3.7-1.3.2-.1.4-.3.7-.4,2-1.3,3.5-3.3,4.2-5.6.2-.8.4-1.9.6-3,0-.4.2-.9.2-1.3l2.5-13.2c1.2-6,2.4-11.9,3.6-17.6.1-.4.5-.6.9-.5.3,0,.5.4.5.7-.8,5.8-1.8,11.7-2.7,17.7l-2.2,13.3c0,.5-.2.9-.2,1.4-.1,1.1-.4,2.2-.6,3.2-.6,2.1-1.8,4.1-3.4,5.6l-.8.8,1.1.2h0c.6,0,1.2.1,1.8.1,5,0,9.4-3.5,10.5-8.4,0-.4,4.1-19.4,8.7-42.7,6.2-31.3,13.4-70.5,13.4-82.5,0-43.9-34.5-74.6-83.8-74.6Z"/>
      <path class="cls-5" d="M40.6,56.2c-15.1,13.2-24,32-24,54.3s21.9,124.1,22.2,125.2c.5,2.1,1.6,4.1,3.2,5.5-5.4-26-22.8-110.4-22.8-130s7.8-40.8,21.4-55"/>
      <path class="cls-4" d="M78,68.1c-20.1,0-36.5,16.3-36.5,36.5s16.3,36.5,36.5,36.5,36.5-16.3,36.5-36.5h0c0-20.1-16.3-36.4-36.5-36.5"/>
      <path class="cls-1" d="M37.9,101.6c0,20.1,16.3,36.5,36.4,36.5,20.1,0,36.5-16.3,36.5-36.4s-16.3-36.5-36.4-36.5h0c-20.1,0-36.4,16.3-36.5,36.4"/>
      <path class="cls-3" d="M99.3,102.1c-.5,15.3-11.5,23.4-18.4,21.8-5.8-1.4-6.6-14.4-2.9-17.8,2.4-2.2,7.2-2.8,7.2-4.5s-4.7-2.6-6.9-5c-3.4-3.6-1.8-16.5,4.2-17.5,7.1-1.2,17.4,7.7,16.9,23"/>
      <path class="cls-4" d="M52,153.1c22.4,3.2,45.2-2.2,63.7-15.2,1.1-.7,2.5-.5,3.2.6.7,1.1.5,2.5-.6,3.2h0c-19.6,13.4-43.5,18.8-67,15.2-1.1-.2-1.7-1.3-1.5-2.3.2-1,1.1-1.6,2.1-1.5"/>
      <path class="cls-4" d="M118.2,144c-.6-3-3.2-5.2-6.2-5.4-1.3,0-2.3-1.2-2.2-2.4,0-1.3,1.2-2.3,2.4-2.2,2.5.4,4.8,1.6,6.5,3.5,1.4,1.3,4.4,7.4,1.2,7.8-.8,0-1.5-.5-1.7-1.2"/>
      <path class="cls-3" d="M51.2,151.4c22.4,3.2,45.2-2.2,63.8-15.2,1.1-.7,2.5-.4,3.2.7.6,1,.4,2.4-.5,3.1-19.6,13.4-43.5,18.8-67,15.2-1.1-.2-1.8-1.1-1.6-2.2.2-1.1,1.1-1.8,2.2-1.6"/>
      <path class="cls-3" d="M117.5,142.4c-.7-3-3.2-5.2-6.2-5.4-1.3,0-2.3-1.2-2.2-2.4,0-1.3,1.2-2.3,2.4-2.2,2.5.4,4.8,1.6,6.4,3.5,1.4,1.3,4.4,7.4,1.2,7.8-.8,0-1.5-.5-1.7-1.2"/>
    </g>
  </g>
</svg>